<svg width="161" height="138" viewBox="0 0 161 138" fill="none" xmlns="http://www.w3.org/2000/svg">
<path d="M58.0908 36.2925C58.2833 35.9592 58.7646 35.9592 58.957 36.2925L78.3691 69.9166C78.4584 70.0713 78.4585 70.2619 78.3691 70.4166L69.709 85.4166C69.5166 85.7498 69.0353 85.7496 68.8428 85.4166L58.957 68.2925C58.7646 67.9592 58.2833 67.9592 58.0908 68.2925L52.584 77.8297C52.5802 77.8359 52.5718 77.8383 52.5654 77.8345C52.559 77.8308 52.5506 77.8329 52.5469 77.8394L18.2217 137.293C18.1324 137.447 17.9675 137.542 17.7891 137.543H0.5C0.1151 137.543 -0.125067 137.126 0.0673828 136.793L58.0908 36.2925ZM101.201 36.2925C101.394 35.9592 101.875 35.9592 102.067 36.2925L160.091 136.793C160.283 137.126 160.042 137.543 159.657 137.543H142.249C142.07 137.543 141.905 137.447 141.815 137.293L132.745 121.581C132.735 121.564 132.747 121.543 132.767 121.543C132.786 121.543 132.799 121.521 132.789 121.504L102.067 68.2925C101.875 67.9592 101.394 67.9592 101.201 68.2925L71.5957 119.568L69.6299 122.397L60.1709 137.31C60.0793 137.455 59.9201 137.542 59.749 137.543H43.4414C43.0565 137.543 42.8163 137.126 43.0088 136.793L51.668 121.793C51.7353 121.676 51.8458 121.592 51.9727 121.558L70.8662 88.8336C70.8554 88.7303 70.8761 88.6247 70.9297 88.5318L79.5908 73.5318C79.6473 73.434 79.7287 73.3652 79.8203 73.3248L101.201 36.2925ZM90.3105 92.0982C90.503 91.7649 90.9843 91.7649 91.1768 92.0982L108.231 121.638C108.287 121.679 108.335 121.731 108.37 121.793L117.03 136.793C117.222 137.126 116.981 137.543 116.597 137.543H98.8184C98.6364 137.542 98.4688 137.443 98.3809 137.284L89.6904 121.547C89.6895 121.545 89.6917 121.543 89.6943 121.543C89.697 121.542 89.6986 121.539 89.6973 121.537L81.6494 107.599C81.5601 107.445 81.5602 107.254 81.6494 107.099L90.3105 92.0982ZM79.707 0.238831C79.902 -0.079683 80.3655 -0.0795706 80.5605 0.238831L100.475 32.7818C100.572 32.9419 100.572 33.1433 100.475 33.3033L80.5605 65.8453C80.3655 66.164 79.9021 66.164 79.707 65.8453L59.7939 33.3033C59.696 33.1432 59.6961 32.9419 59.7939 32.7818L79.707 0.238831Z" fill="black"/>
</svg>
